# xmcd CD database file
#
# Track frame offsets:
#	150
#	25327
#	53687
#	79478
#	109542
#	125117
#	160455
#	174918
#	203665
#	223933
#	236021
#
# Disc length: 3439 seconds
#
# Revision: 0
# Processed by: cddbd v1.5.1PL2 Copyright (c) Steve Scherf et al.
# Submitted via: CDex 1.51
#
DISCID=990d6d0b
DTITLE=Pete McCann - Most Folks
DYEAR=2006
DGENRE=Jazz
TTITLE0=Most Folks
TTITLE1=Jojo's Waltz
TTITLE2=Rack 'Em Up
TTITLE3=Las Tias
TTITLE4=About Face
TTITLE5=Yes, My Friend
TTITLE6=Hunter Gatherer
TTITLE7=JM
TTITLE8=Third Wheel
TTITLE9=Split Decision
TTITLE10=Worth
EXTD=YEAR: 2006
EXTT0=
EXTT1=
EXTT2=
EXTT3=
EXTT4=
EXTT5=
EXTT6=
EXTT7=
EXTT8=
EXTT9=
EXTT10=
PLAYORDER=
